<svg width="265" height="25" viewBox="0 0 265 25" fill="none" xmlns="http://www.w3.org/2000/svg">
<path d="M0.295455 24V0.727272H9.02273C10.8106 0.727272 12.3106 1.03788 13.5227 1.65909C14.7424 2.2803 15.6629 3.15151 16.2841 4.27273C16.9129 5.38636 17.2273 6.68561 17.2273 8.17045C17.2273 9.66288 16.9091 10.9583 16.2727 12.0568C15.6439 13.1477 14.7159 13.9924 13.4886 14.5909C12.2614 15.1818 10.7538 15.4773 8.96591 15.4773H2.75V11.9773H8.39773C9.44318 11.9773 10.2992 11.8333 10.9659 11.5455C11.6326 11.25 12.125 10.822 12.4432 10.2614C12.7689 9.69318 12.9318 8.99621 12.9318 8.17045C12.9318 7.3447 12.7689 6.64015 12.4432 6.05682C12.1174 5.46591 11.6212 5.01894 10.9545 4.71591C10.2879 4.4053 9.42803 4.25 8.375 4.25H4.51136V24H0.295455ZM12.3182 13.4545L18.0795 24H13.375L7.71591 13.4545H12.3182ZM21.108 24V0.727272H29.8352C31.6231 0.727272 33.1231 1.06061 34.3352 1.72727C35.5549 2.39394 36.4754 3.31061 37.0966 4.47727C37.7254 5.63636 38.0398 6.95454 38.0398 8.43182C38.0398 9.92424 37.7254 11.25 37.0966 12.4091C36.4678 13.5682 35.5398 14.4811 34.3125 15.1477C33.0852 15.8068 31.5739 16.1364 29.7784 16.1364H23.9943V12.6705H29.2102C30.2557 12.6705 31.1117 12.4886 31.7784 12.125C32.4451 11.7614 32.9375 11.2614 33.2557 10.625C33.5814 9.98864 33.7443 9.25758 33.7443 8.43182C33.7443 7.60606 33.5814 6.87879 33.2557 6.25C32.9375 5.62121 32.4413 5.13258 31.767 4.78409C31.1004 4.42803 30.2405 4.25 29.1875 4.25H25.3239V24H21.108ZM41.7017 24V0.727272H45.9176V20.4659H56.1676V24H41.7017ZM87.6847 8.57955H83.4347C83.3134 7.88258 83.09 7.26515 82.7642 6.72727C82.4384 6.18182 82.0331 5.7197 81.5483 5.34091C81.0634 4.96212 80.5104 4.67803 79.8892 4.48864C79.2756 4.29167 78.6127 4.19318 77.9006 4.19318C76.6354 4.19318 75.5142 4.51136 74.5369 5.14773C73.5597 5.77651 72.7945 6.70076 72.2415 7.92045C71.6884 9.13258 71.4119 10.6136 71.4119 12.3636C71.4119 14.1439 71.6884 15.6439 72.2415 16.8636C72.8021 18.0758 73.5672 18.9924 74.5369 19.6136C75.5142 20.2273 76.6316 20.5341 77.8892 20.5341C78.5862 20.5341 79.2377 20.4432 79.8438 20.2614C80.4574 20.072 81.0066 19.7955 81.4915 19.4318C81.9839 19.0682 82.3968 18.6212 82.7301 18.0909C83.071 17.5606 83.3059 16.9545 83.4347 16.2727L87.6847 16.2955C87.5256 17.4015 87.1809 18.4394 86.6506 19.4091C86.1278 20.3788 85.4422 21.2348 84.5938 21.9773C83.7453 22.7121 82.7528 23.2879 81.6165 23.7045C80.4801 24.1136 79.2188 24.3182 77.8324 24.3182C75.7869 24.3182 73.9612 23.8447 72.3551 22.8977C70.7491 21.9508 69.4839 20.5833 68.5597 18.7955C67.6354 17.0076 67.1733 14.8636 67.1733 12.3636C67.1733 9.85606 67.6392 7.71212 68.571 5.93182C69.5028 4.14394 70.7718 2.77651 72.3778 1.82954C73.9839 0.882575 75.8021 0.40909 77.8324 0.40909C79.1278 0.40909 80.3324 0.590908 81.446 0.954544C82.5597 1.31818 83.5521 1.85227 84.4233 2.55682C85.2945 3.25379 86.0104 4.10985 86.571 5.125C87.1392 6.13258 87.5104 7.28409 87.6847 8.57955ZM112.341 12.3636C112.341 14.8712 111.871 17.0189 110.932 18.8068C110 20.5871 108.727 21.9508 107.114 22.8977C105.508 23.8447 103.686 24.3182 101.648 24.3182C99.6098 24.3182 97.7841 23.8447 96.1705 22.8977C94.5644 21.9432 93.2917 20.5758 92.3523 18.7955C91.4205 17.0076 90.9545 14.8636 90.9545 12.3636C90.9545 9.85606 91.4205 7.71212 92.3523 5.93182C93.2917 4.14394 94.5644 2.77651 96.1705 1.82954C97.7841 0.882575 99.6098 0.40909 101.648 0.40909C103.686 0.40909 105.508 0.882575 107.114 1.82954C108.727 2.77651 110 4.14394 110.932 5.93182C111.871 7.71212 112.341 9.85606 112.341 12.3636ZM108.102 12.3636C108.102 10.5985 107.826 9.10985 107.273 7.89773C106.727 6.67803 105.97 5.75758 105 5.13636C104.03 4.50758 102.913 4.19318 101.648 4.19318C100.383 4.19318 99.2652 4.50758 98.2955 5.13636C97.3258 5.75758 96.5644 6.67803 96.0114 7.89773C95.4659 9.10985 95.1932 10.5985 95.1932 12.3636C95.1932 14.1288 95.4659 15.6212 96.0114 16.8409C96.5644 18.053 97.3258 18.9735 98.2955 19.6023C99.2652 20.2235 100.383 20.5341 101.648 20.5341C102.913 20.5341 104.03 20.2235 105 19.6023C105.97 18.9735 106.727 18.053 107.273 16.8409C107.826 15.6212 108.102 14.1288 108.102 12.3636ZM116.327 24V0.727272H120.543V20.4659H130.793V24H116.327ZM134.452 24V0.727272H138.668V20.4659H148.918V24H134.452ZM152.577 24V0.727272H167.713V4.26136H156.793V10.5795H166.929V14.1136H156.793V20.4659H167.804V24H152.577ZM191.935 8.57955H187.685C187.563 7.88258 187.34 7.26515 187.014 6.72727C186.688 6.18182 186.283 5.7197 185.798 5.34091C185.313 4.96212 184.76 4.67803 184.139 4.48864C183.526 4.29167 182.863 4.19318 182.151 4.19318C180.885 4.19318 179.764 4.51136 178.787 5.14773C177.81 5.77651 177.045 6.70076 176.491 7.92045C175.938 9.13258 175.662 10.6136 175.662 12.3636C175.662 14.1439 175.938 15.6439 176.491 16.8636C177.052 18.0758 177.817 18.9924 178.787 19.6136C179.764 20.2273 180.882 20.5341 182.139 20.5341C182.836 20.5341 183.488 20.4432 184.094 20.2614C184.707 20.072 185.257 19.7955 185.741 19.4318C186.234 19.0682 186.647 18.6212 186.98 18.0909C187.321 17.5606 187.556 16.9545 187.685 16.2727L191.935 16.2955C191.776 17.4015 191.431 18.4394 190.901 19.4091C190.378 20.3788 189.692 21.2348 188.844 21.9773C187.995 22.7121 187.003 23.2879 185.866 23.7045C184.73 24.1136 183.469 24.3182 182.082 24.3182C180.037 24.3182 178.211 23.8447 176.605 22.8977C174.999 21.9508 173.734 20.5833 172.81 18.7955C171.885 17.0076 171.423 14.8636 171.423 12.3636C171.423 9.85606 171.889 7.71212 172.821 5.93182C173.753 4.14394 175.022 2.77651 176.628 1.82954C178.234 0.882575 180.052 0.40909 182.082 0.40909C183.378 0.40909 184.582 0.590908 185.696 0.954544C186.81 1.31818 187.802 1.85227 188.673 2.55682C189.545 3.25379 190.26 4.10985 190.821 5.125C191.389 6.13258 191.76 7.28409 191.935 8.57955ZM194.773 4.26136V0.727272H213.341V4.26136H206.148V24H201.966V4.26136H194.773ZM221.136 0.727272V24H216.92V0.727272H221.136ZM228.815 0.727272L234.872 19.0455H235.111L241.156 0.727272H245.793L237.588 24H232.384L224.19 0.727272H228.815ZM248.858 24V0.727272H263.994V4.26136H253.074V10.5795H263.21V14.1136H253.074V20.4659H264.085V24H248.858Z" fill="black"/>
</svg>
